<?xml version="1.0" encoding="UTF-8" standalone="no"?>
<svg
   id="logo-54"
   width="170"
   height="41"
   viewBox="0 0 170 41"
   fill="none"
   version="1.1"
   sodipodi:docname="logo.svg"
   inkscape:version="1.1.1 (3bf5ae0d25, 2021-09-20)"
   xmlns:inkscape="http://www.inkscape.org/namespaces/inkscape"
   xmlns:sodipodi="http://sodipodi.sourceforge.net/DTD/sodipodi-0.dtd"
   xmlns="http://www.w3.org/2000/svg"
   xmlns:svg="http://www.w3.org/2000/svg">
  <defs
     id="defs25" />
  <sodipodi:namedview
     id="namedview23"
     pagecolor="#ffffff"
     bordercolor="#666666"
     borderopacity="1.0"
     inkscape:pageshadow="2"
     inkscape:pageopacity="0.0"
     inkscape:pagecheckerboard="0"
     showgrid="false"
     inkscape:zoom="2.4353589"
     inkscape:cx="80.891566"
     inkscape:cy="75.348236"
     inkscape:window-width="1366"
     inkscape:window-height="644"
     inkscape:window-x="0"
     inkscape:window-y="26"
     inkscape:window-maximized="1"
     inkscape:current-layer="g864" />
  <g
     id="g864"
     transform="translate(0.47951155,0.98206755)">
    <path
       d="m 46.778467,24.175694 v -13.56 h -4.248 v 17.16 h 11.952 v -3.6"
       class="cneutral"
       fill="#340e0e"
       id="path2"
       style="fill:#2563eb;fill-opacity:1"
       sodipodi:nodetypes="cccccc" />
    <path
       d="m 61.563567,25.375694 c -1.704,0 -2.592,-1.488 -2.592,-3.72 0,-2.232 0.888,-3.744 2.592,-3.744 1.704,0 2.616,1.512 2.616,3.744 0,2.232 -0.912,3.72 -2.616,3.72 z m 0.024,2.784 c 3.96,0 6.552,-2.808 6.552,-6.504 0,-3.696 -2.592,-6.504 -6.552,-6.504 -3.936,0 -6.576,2.808 -6.576,6.504 0,3.696 2.64,6.504 6.576,6.504 z"
       class="cneutral"
       fill="#340e0e"
       id="path4"
       style="fill:#2563eb;fill-opacity:1" />
    <path
       d="m 74.994067,32.023694 c 1.824,0 3.432,-0.408 4.512,-1.368 0.984,-0.888 1.632,-2.232 1.632,-4.08 v -11.088 h -3.744 v 1.32 h -0.048 c -0.72,-1.032 -1.824,-1.68 -3.456,-1.68 -3.048,0 -5.16,2.544 -5.16,6.144 0,3.768 2.568,5.832 5.328,5.832 1.488,0 2.424,-0.6 3.144,-1.416 h 0.096 v 1.224 c 0,1.488 -0.696,2.352 -2.352,2.352 -1.296,0 -1.944,-0.552 -2.16,-1.2 h -3.792 c 0.384,2.568 2.616,3.96 6,3.96 z m -0.024,-7.824 c -1.464,0 -2.424,-1.2 -2.424,-3.048 0,-1.872 0.96,-3.072 2.424,-3.072 1.632,0 2.496,1.392 2.496,3.048 0,1.728 -0.792,3.072 -2.496,3.072 z"
       class="cneutral"
       fill="#340e0e"
       id="path6"
       style="fill:#2563eb;fill-opacity:1" />
    <path
       d="m 88.836367,25.375694 c -1.704,0 -2.592,-1.488 -2.592,-3.72 0,-2.232 0.888,-3.744 2.592,-3.744 1.704,0 2.616,1.512 2.616,3.744 0,2.232 -0.912,3.72 -2.616,3.72 z m 0.024,2.784 c 3.96,0 6.552,-2.808 6.552,-6.504 0,-3.696 -2.592,-6.504 -6.552,-6.504 -3.936,0 -6.576,2.808 -6.576,6.504 0,3.696 2.64,6.504 6.576,6.504 z"
       class="cneutral"
       fill="#340e0e"
       id="path8"
       style="fill:#2563eb;fill-opacity:1" />
    <path
       d="m 96.554367,27.775694 h 3.912003 v -12.288 h -3.912003 z m 0,-13.992 h 3.912003 v -3.168 h -3.912003 z"
       class="cneutral"
       fill="#340e0e"
       id="path10"
       style="fill:#2563eb;fill-opacity:1" />
    <path
       d="m 102.16437,31.831694 h 3.912 v -5.328 h 0.048 c 0.768,1.032 1.896,1.656 3.48,1.656 3.216,0 5.352,-2.544 5.352,-6.528 0,-3.696 -1.992,-6.504 -5.256,-6.504 -1.68,0 -2.88,0.744 -3.72,1.848 h -0.072 v -1.488 h -3.744 z m 6.432,-6.696 c -1.68,0 -2.64,-1.368 -2.64,-3.36 0,-1.992 0.864,-3.504 2.568,-3.504 1.68,0 2.472,1.392 2.472,3.504 0,2.088 -0.912,3.36 -2.4,3.36 z"
       class="cneutral"
       fill="#340e0e"
       id="path12"
       style="fill:#2563eb;fill-opacity:1" />
    <path
       d="m 121.32537,28.159694 c 3.216,0 5.592,-1.392 5.592,-4.08 0,-3.144 -2.544,-3.696 -4.704,-4.056 -1.56,-0.288 -2.952,-0.408 -2.952,-1.272 0,-0.768 0.744,-1.128 1.704,-1.128 1.08,0 1.824,0.336 1.968,1.44 h 3.6 c -0.192,-2.424 -2.064,-3.936 -5.544,-3.936 -2.904,0 -5.304,1.344 -5.304,3.936 0,2.88 2.28,3.456 4.416,3.816 1.632,0.288 3.12,0.408 3.12,1.512 0,0.792 -0.744,1.224 -1.92,1.224 -1.296,0 -2.112,-0.6 -2.256,-1.824 h -3.696 c 0.12,2.712 2.376,4.368 5.976,4.368 z"
       class="cneutral"
       fill="#340e0e"
       id="path14"
       style="fill:#2563eb;fill-opacity:1" />
    <path
       d="m 132.23137,28.135694 c 1.704,0 2.784,-0.672 3.672,-1.872 h 0.072 v 1.512 h 3.744 v -12.288 h -3.912 v 6.864 c 0,1.464 -0.816,2.472 -2.16,2.472 -1.248,0 -1.848,-0.744 -1.848,-2.088 v -7.248 h -3.888 v 8.064 c 0,2.736 1.488,4.584 4.32,4.584 z"
       class="cneutral"
       fill="#340e0e"
       id="path16"
       style="fill:#2563eb;fill-opacity:1" />
    <path
       d="m 141.42037,27.775694 h 3.912 v -6.888 c 0,-1.464 0.72,-2.496 1.944,-2.496 1.176,0 1.728,0.768 1.728,2.088 v 7.296 h 3.912 v -6.888 c 0,-1.464 0.696,-2.496 1.944,-2.496 1.176,0 1.728,0.768 1.728,2.088 v 7.296 h 3.912 v -7.992 c 0,-2.76 -1.392,-4.656 -4.176,-4.656 -1.584,0 -2.904,0.672 -3.864,2.16 h -0.048 c -0.624,-1.32 -1.848,-2.16 -3.456,-2.16 -1.776,0 -2.952,0.84 -3.72,2.112 h -0.072 v -1.752 h -3.744 z"
       class="cneutral"
       fill="#340e0e"
       id="path18"
       style="fill:#2563eb;fill-opacity:1" />
    <path
       fill-rule="evenodd"
       clip-rule="evenodd"
       d="m 20.684086,31.487783 c 6.706654,0 12.143464,-5.436811 12.143464,-12.143465 0,-6.706629 -5.43681,-12.143446 -12.143464,-12.143446 -6.706672,0 -12.1434758,5.436817 -12.1434758,12.143446 0,6.706654 5.4368038,12.143465 12.1434758,12.143465 z m 3.788336,-18.629976 c 0.184399,-0.655013 -0.451251,-1.042341 -1.03177,-0.628751 l -8.10388,5.773166 c -0.629578,0.448519 -0.530548,1.342096 0.148757,1.342096 H 17.6195 v -0.01651 h 4.159016 l -3.388817,1.195705 -1.493949,5.307362 c -0.184399,0.655017 0.45119,1.042335 1.031769,0.628728 L 26.0314,20.686478 c 0.629578,-0.44852 0.530487,-1.342157 -0.148758,-1.342157 h -3.236111 z"
       class="ccustom"
       fill="#f15757"
       id="path20"
       style="fill:#2563eb;fill-opacity:1;stroke-width:1" />
  </g>
</svg>
